<?xml version="1.0" encoding="utf-8"?>
<svg id="master-artboard" viewBox="0 0 548 390" version="1.1" xmlns="http://www.w3.org/2000/svg" x="0px" y="0px" style="enable-background:new 0 0 548 390;" width="548px" height="390px">

<radialGradient id="color_1_" cx="90.3781" cy="-1244.5642" r="309.4729" gradientTransform="matrix(1.2426 0 0 1.1006 163.2432 1565.3574)" gradientUnits="userSpaceOnUse">
		<stop offset="0" style="stop-color:#FFFFFF"/>
		<stop offset="0.5174" style="stop-color:#FDFDFD"/>
		<stop offset="0.7251" style="stop-color:#F6F6F6"/>
		<stop offset="0.8767" style="stop-color:#EAEAEA"/>
		<stop offset="1" style="stop-color:#D9D9D9"/>
	</radialGradient><path d="M 0 0 H 548 V 390 H 0 V 0 Z" id="color" class="st0" style="opacity: 0.5; fill: url('#color_1_');" transform="matrix(1, 0, 0, 1, -2.842170943040401e-14, 0)"/>
<g transform="matrix(1, 0, 0, 1, -2.842170943040401e-14, 0)">
		<g>
			<g>
				<g>
					<path class="st1" d="M452.1,153.4c0.7,2.2,1.2,4,1.5,4.7c1.2,3,5.4,21.2,5.8,22.5c0,0-2.4-10.2-3.2-14.2&#10;&#9;&#9;&#9;&#9;&#9;&#9;C455.7,163.6,453.7,157.8,452.1,153.4z" style="fill: rgb(254, 219, 180);"/>
					<path class="st1" d="M513,149.5c-3,1.2-5.7,9.9-6.8,12.8c-1.1,2.8-9.3,21.8-10.1,24.4c-0.8,2.6-3.6-1-3.4-2.1c0.2-1,2-13,2-13&#10;&#9;&#9;&#9;&#9;&#9;&#9;s0.3-3.1,0.8-7c-0.1,0-0.1,0-0.2,0c-1.3,8.7-2.7,18.5-2.8,19.1c-0.3,1-7.7,0.5-7.7,0.5s3-5.9,4.1-9.7c0.3-1.1,1-5.8,1.8-11.9&#10;&#9;&#9;&#9;&#9;&#9;&#9;c-1.1-0.1-2.2-0.3-3.2-0.6c-1.9-0.6-2.1-0.6-1.6-0.6c0.5,0.1,0.9,0.1,0.9,0.1c1.5,0.3,2.8,0.5,3.9,0.7&#10;&#9;&#9;&#9;&#9;&#9;&#9;c0.7-5.2,1.4-11.4,2.1-17.2c-1.4-0.2-3.3-0.5-3.6-0.6c-0.4-0.1,0.2-0.3,0.6-0.1c0.3,0.1,1.7,0.3,3,0.5&#10;&#9;&#9;&#9;&#9;&#9;&#9;c1.3-10.5,2.3-19.8,2.3-19.8c0.4-0.9,0.9-1.3,1.4-1.3c-1.6-0.7-3.6-0.7-4.9,0.2c-2.4,1.7-4.6,16.2-4.4,18.7&#10;&#9;&#9;&#9;&#9;&#9;&#9;c0.2,2.5-7.1,28.5-7.6,32.5c-0.5,4.1-2.1,2.7-2.1,2.7s-0.2-1.8-0.3-4.1c0.1,3.4,0.2,5.9,0.2,5.9l-8,0.8&#10;&#9;&#9;&#9;&#9;&#9;&#9;c2.7-1.8,2-13.2,1.3-22.9c-1.2,0.1-2.3,0.1-3.7,0.1c-1.8,0-1.8-0.5-1.5-0.4c0.3,0.1,1.9,0.3,4.6,0.1c0.2,0,0.4,0,0.5,0&#10;&#9;&#9;&#9;&#9;&#9;&#9;c-0.3-4.2-0.6-8.1-0.7-10.6c-0.1-2.6-0.1-6.8-0.2-11.3c-0.5,0.1-1,0.1-1.5,0.2c-1.3,0.2-1.9,0-2.3-0.1&#10;&#9;&#9;&#9;&#9;&#9;&#9;c-0.3-0.1,0.4-0.2,1.8-0.2c0.5,0,1.2,0,2-0.1c-0.1-9.7-0.2-20.8-0.2-20.8c0.9-0.3,1.7-0.2,2.3,0.1c-1.6-1.5-4.1-0.7-6.6,1.3&#10;&#9;&#9;&#9;&#9;&#9;&#9;c-3.1,2.5-2.8,12.5-2.8,12.5s-0.2,21.2-0.2,25c0,3.8,0.9,26.2,0.9,26.2l-4,1c0.4,1.2-7.5,3.6-7.5,3.6s0.4-5.7-2.6-20&#10;&#9;&#9;&#9;&#9;&#9;&#9;c-0.6,0.2-1.1,0.4-1.6,0.5c-1.3,0.4-2.2,0.6-2.9,0.8c-0.7,0.1-0.6-0.1-0.3-0.2c0.3-0.1,1.1-0.2,2.4-0.6&#10;&#9;&#9;&#9;&#9;&#9;&#9;c0.5-0.1,1.4-0.4,2.3-0.8c-0.5-2.3-1-4.7-1.7-7.4c-0.9-3.6-1.8-6.9-2.6-10c-1.2,0.4-1.8,0.6-2.8,0.8c-1,0.2-1.9,0.4-1.3,0.1&#10;&#9;&#9;&#9;&#9;&#9;&#9;c0.6-0.3,1.5-0.7,3.5-1.1c0.2,0,0.3-0.1,0.5-0.1c-3.6-13.3-6.5-21.4-6.5-21.4c-4.7,1-3.7,9.6-3.1,11.8c0.6,2.2,3.6,18,3.7,19.7&#10;&#9;&#9;&#9;&#9;&#9;&#9;c0.1,1.8,4.6,21.7,5.2,23.2c0.6,1.5,2.3,12.5,2.5,15.2c0.1,1.7-1.1,6.3-2.1,9.8c0,0,0,0,0,0c1.1-2.3,2.2-2.7,1.8-1.2&#10;&#9;&#9;&#9;&#9;&#9;&#9;c-0.4,1.4-0.7,3.6,0.5,2.7c1.2-0.8,2-1.9,2.8-3c0.8-1.1,1.8-1.5,1.8-1.5s-0.6,1.3-2,2.6c-1.4,1.4-3.7,3.6-3.9,4.2&#10;&#9;&#9;&#9;&#9;&#9;&#9;c0,0.1,0,0.1,0,0.2c2.1,0.3,11.6,1.9,21,8.7c10.6,7.8,16.8-6.1,18.9-10.3c2.1-4.2,4.2-13.1,5.2-14.1c0.9-1.1,0.7,0.3-0.7,4.8&#10;&#9;&#9;&#9;&#9;&#9;&#9;c-1.4,4.5-5,17.8-6.4,21.3c-1.5,3.5-7.1,14.7-8.5,19.8c0,0-1.2-8.8-7.6-16.4c-8.4-10.1-20.2-11.6-21.7-12.3&#10;&#9;&#9;&#9;&#9;&#9;&#9;c-0.6-0.3-1-0.5-1.1-0.6l-1.2,0.2c0,0,0-0.8,0.2-1.9c-0.2,0.6-0.3,1.1-0.4,1.2c-0.3,0.9-2.1,1-2.7-0.2c-0.6-1.1-7-12.4-11-19.7&#10;&#9;&#9;&#9;&#9;&#9;&#9;c-4-7.3-11.9-10.5-17.4-9.2c-5.5,1.3-4.4,5.5-3.3,6.6c1,1.1,8.6,10.3,11.7,16.5c-0.7-2.5-0.8-4.9-0.8-4.9&#10;&#9;&#9;&#9;&#9;&#9;&#9;c4.4,6.1,11.4,21.5,13.4,25.8c1.9,4.3,11.3,18.8,22.9,21.5c11.6,2.6,19.9,0.1,19.9,0.1c10.5,1.4,18.1-11.9,20.3-20.8&#10;&#9;&#9;&#9;&#9;&#9;&#9;c2.1-8.9,4.4-31.9,4.4-31.9l8.8-24.6c-0.5-0.2-0.9-0.3-1.3-0.5c-1.1-0.6-0.1-0.3,0.5-0.1c0.2,0.1,0.5,0.2,0.9,0.3l6.5-18.2&#10;&#9;&#9;&#9;&#9;&#9;&#9;C515,149.2,514,149.2,513,149.5z M431.5,195.2c-0.6-1.5-1.4-0.8-2.6,0.5c-1.2,1.3-3,2.7-4,2.9c-1,0.2-0.8,0,1.1-1.1&#10;&#9;&#9;&#9;&#9;&#9;&#9;c1.8-1.1,3.2-2.6,3.7-4.1c0.4-1.5-0.8-2.5-0.8-2.5s1.8,0.6,2.1,1.1c0.3,0.5,0.8,1.5,1.6,3.6&#10;&#9;&#9;&#9;&#9;&#9;&#9;C433.3,197.8,432.1,196.7,431.5,195.2z" style="fill: rgb(254, 219, 180);"/>
					<path class="st1" d="M427.3,222.8c-0.2-0.6-0.5-1.2-0.8-2c0.4,1.4,0.6,2.4,0.7,2.8c0.3,1.8,10.7,14.7,10.7,14.7l13,13.8&#10;&#9;&#9;&#9;&#9;&#9;&#9;l-0.5,12h22.3l0.5-8.8c0,0-19.9-1.1-22.8-4C447.4,248.4,429.3,227.4,427.3,222.8z" style="fill: rgb(254, 219, 180);"/>
					<path class="st1" d="M495.6,163c0.1-1.1,0.2-2.1,0.3-3.2c-0.1,1-0.3,2-0.4,3C495.6,162.8,495.6,162.9,495.6,163z" style="fill: rgb(254, 219, 180);"/>
					<path class="st1" d="M490.9,264.1l0-0.3C491,263.9,490.9,264,490.9,264.1L490.9,264.1z" style="fill: rgb(254, 219, 180);"/>
					<path class="st1" d="M498.1,138.7c0.6-5,1.2-10.1,1.1-11.8c-0.1-1.1-0.7-2-1.5-2.6c0.6,0.8,1.1,2.2,1,3.6&#10;&#9;&#9;&#9;&#9;&#9;&#9;C498.8,129.3,498.5,133.9,498.1,138.7z" style="fill: rgb(254, 219, 180);"/>
					<path class="st1" d="M501.7,229c0.3-1.2,0.6-2.1,0.7-2.8c0.1-0.6,0.2-1.4,0.3-2.3c0,0.3-0.1,0.6-0.1,0.9&#10;&#9;&#9;&#9;&#9;&#9;&#9;C502.3,226.2,502,227.6,501.7,229z" style="fill: rgb(254, 219, 180);"/>
					<path class="st1" d="M444.1,126.7c0.6,0.9,1.2,1.9,1.6,2.9C445.3,128.5,444.8,127.5,444.1,126.7z" style="fill: rgb(254, 219, 180);"/>
					<path class="st1" d="M506,197.3c-0.4,3.5-0.9,8.2-1.5,13C505.2,204.7,505.9,199.4,506,197.3z" style="fill: rgb(254, 219, 180);"/>
					<path class="st1" d="M506.5,193.9c0.4-1.8,1-4.4,1.7-7c-0.7,2.2-1.2,3.8-1.3,4.3C506.8,191.7,506.6,192.6,506.5,193.9z" style="fill: rgb(254, 219, 180);"/>
					<path class="st1" d="M518.6,151.6c0.1,1,0.1,2.2-0.1,3.5c0.2-0.5,0.3-0.9,0.3-1.1C519.1,153.1,519,152.3,518.6,151.6z" style="fill: rgb(254, 219, 180);"/>
				</g>
				<g>
					<path class="st2" d="M484.7,184.2c0,0,7.4,0.5,7.7-0.5c0.2-0.6,1.6-10.4,2.8-19.1c0.1,0,0.5-1.4,0.4-1.6c0-0.1-0.1-0.1-0.1-0.2&#10;&#9;&#9;&#9;&#9;&#9;&#9;c0.1-1,0.3-2,0.4-3c0.7-4.8,1.2-8.3,1.2-8.3s0.5-6.5,1-12.8c0.3-4.8,0.7-9.3,0.7-10.7c0-1.5-0.4-2.8-1-3.6&#10;&#9;&#9;&#9;&#9;&#9;&#9;c-0.3-0.4-0.8-0.7-1.2-0.7c-0.5,0-1,0.4-1.4,1.3c0,0-1.1,9.3-2.3,19.8c-1.4-0.2-2.8-0.4-3-0.5c-0.4-0.1-1,0-0.6,0.1&#10;&#9;&#9;&#9;&#9;&#9;&#9;c0.3,0.1,2.2,0.4,3.6,0.6c-0.7,5.8-1.5,12-2.1,17.2c-1.1-0.2-2.4-0.4-3.9-0.7c0,0-0.4-0.1-0.9-0.1c-0.5-0.1-0.3,0,1.6,0.6&#10;&#9;&#9;&#9;&#9;&#9;&#9;c0.9,0.3,2.1,0.5,3.2,0.6c-0.8,6.1-1.5,10.8-1.8,11.9C487.7,178.3,484.7,184.2,484.7,184.2z" style="fill: rgb(253, 203, 156);"/>
					<path class="st2" d="M518.6,151.6c-0.2-1.8-0.9-2.9-2.6-2.4l-0.1,0.2l-6.5,18.2c-0.4-0.1-0.7-0.2-0.9-0.3&#10;&#9;&#9;&#9;&#9;&#9;&#9;c-0.6-0.2-1.6-0.5-0.5,0.1c0.4,0.2,0.8,0.4,1.3,0.5l-8.8,24.6c0,0-2.3,23-4.4,31.9c-2.1,8.9-9.7,22.1-20.3,20.8&#10;&#9;&#9;&#9;&#9;&#9;&#9;c0,0-8.3,2.5-19.9-0.1c-11.6-2.6-20.9-17.2-22.9-21.5c-1.9-4.3-9-19.6-13.4-25.8c0,0,0.2,2.4,0.8,4.9c0.2,0.6,0.4,1.2,0.6,1.8&#10;&#9;&#9;&#9;&#9;&#9;&#9;c1,2.6,3.5,11,5.4,16.2c0.3,0.7,0.5,1.4,0.8,2c2,4.6,20.1,25.7,23,28.5c2.9,2.9,22.8,4,22.8,4l-0.5,8.8h18.3&#10;&#9;&#9;&#9;&#9;&#9;&#9;c0-0.1,0-0.2,0.1-0.3c0.8-4.6,1.8-10.7,2.1-11.7c0.5-1.5,6-12.1,8.6-23c0.3-1.4,0.6-2.8,0.8-4.2c0-0.3,0.1-0.6,0.1-0.9&#10;&#9;&#9;&#9;&#9;&#9;&#9;c0.6-4.1,1.3-9,1.8-13.6c0.6-4.8,1.1-9.5,1.5-13c0.2-1.3,0.3-2.4,0.4-3.4c0.2-1.3,0.3-2.3,0.4-2.7c0.1-0.6,0.6-2.2,1.3-4.3&#10;&#9;&#9;&#9;&#9;&#9;&#9;c2.2-7,6.5-19.8,7.8-22.5c0.9-1.7,2.1-5.8,2.5-9.3C518.7,153.8,518.7,152.6,518.6,151.6z" style="fill: rgb(253, 203, 156);"/>
					<path class="st2" d="M466.7,217.3c-9.3-6.8-18.9-8.4-21-8.7c0-0.1-0.1-0.1,0-0.2c0.2-0.5,2.5-2.8,3.9-4.2c1.4-1.4,2-2.6,2-2.6&#10;&#9;&#9;&#9;&#9;&#9;&#9;s-1,0.4-1.8,1.5c-0.8,1.1-1.6,2.1-2.8,3c-1.2,0.8-1-1.3-0.5-2.7c0.4-1.4-0.7-1.1-1.8,1.2c0,0,0,0,0,0c-0.5,1-0.8,2.1-0.9,3&#10;&#9;&#9;&#9;&#9;&#9;&#9;c-0.2,1.1-0.2,1.9-0.2,1.9l1.2-0.2c0.1,0.2,0.5,0.4,1.1,0.6c1.6,0.7,13.3,2.2,21.7,12.3c6.4,7.7,7.6,16.4,7.6,16.4&#10;&#9;&#9;&#9;&#9;&#9;&#9;c1.5-5.1,7.1-16.3,8.5-19.8c1.5-3.5,5-16.8,6.4-21.3c1.4-4.5,1.7-5.8,0.7-4.8c-0.9,1.1-3.1,10-5.2,14.1&#10;&#9;&#9;&#9;&#9;&#9;&#9;C483.5,211.2,477.3,225.1,466.7,217.3z" style="fill: rgb(253, 203, 156);"/>
					<path class="st2" d="M444.3,146.3c-2,0.4-2.9,0.8-3.5,1.1c-0.6,0.3,0.3,0.1,1.3-0.1c1-0.2,1.6-0.4,2.8-0.8&#10;&#9;&#9;&#9;&#9;&#9;&#9;c0.8,3.1,1.7,6.4,2.6,10c0.7,2.7,1.2,5.2,1.7,7.4c-0.9,0.3-1.8,0.6-2.3,0.8c-1.3,0.3-2.1,0.5-2.4,0.6c-0.3,0.1-0.4,0.4,0.3,0.2&#10;&#9;&#9;&#9;&#9;&#9;&#9;c0.7-0.1,1.6-0.4,2.9-0.8c0.5-0.1,1-0.3,1.6-0.5c3,14.2,2.6,20,2.6,20s7.9-2.3,7.5-3.6c-0.4-1.2-4.6-19.5-5.8-22.5&#10;&#9;&#9;&#9;&#9;&#9;&#9;c-0.3-0.8-0.8-2.5-1.5-4.7c-1.9-6.5-4.7-17.3-5.5-20.8c-0.2-1-0.5-2-0.9-3c-0.4-1.1-1-2.1-1.6-2.9c-1.5-2.1-3.6-3.2-5.8-1.8&#10;&#9;&#9;&#9;&#9;&#9;&#9;c0,0,2.9,8,6.5,21.4C444.6,146.3,444.4,146.3,444.3,146.3z" style="fill: rgb(253, 203, 156);"/>
					<path class="st2" d="M467.2,157.7c1.3,0,2.5,0,3.7-0.1c0.7,9.6,1.4,21.1-1.3,22.9l8-0.8c0,0-0.1-2.5-0.2-5.9&#10;&#9;&#9;&#9;&#9;&#9;&#9;c-0.3-7.3-0.7-18.9-0.7-19.6c-0.1-1-1.1-23-1.3-25.8c-0.2-2.4,0.5-12-3.2-13.7c-0.6-0.3-1.4-0.4-2.3-0.1c0,0,0.1,11.1,0.2,20.8&#10;&#9;&#9;&#9;&#9;&#9;&#9;c-0.8,0.1-1.5,0.1-2,0.1c-1.3,0-2.1,0-1.8,0.2c0.3,0.1,0.9,0.3,2.3,0.1c0.5-0.1,1-0.1,1.5-0.2c0,4.5,0.1,8.6,0.2,11.3&#10;&#9;&#9;&#9;&#9;&#9;&#9;c0.1,2.6,0.4,6.4,0.7,10.6c-0.2,0-0.4,0-0.5,0c-2.7,0.2-4.2-0.1-4.6-0.1C465.4,157.2,465.4,157.7,467.2,157.7z" style="fill: rgb(253, 203, 156);"/>
					<path class="st2" d="M424.9,198.7c1-0.2,2.8-1.6,4-2.9c1.2-1.3,2-2,2.6-0.5c0.6,1.5,1.8,2.5,1,0.4c-0.8-2.1-1.3-3.1-1.6-3.6&#10;&#9;&#9;&#9;&#9;&#9;&#9;c-0.3-0.5-2.1-1.1-2.1-1.1s1.2,0.9,0.8,2.5c-0.4,1.5-1.8,3-3.7,4.1C424.2,198.7,423.9,198.9,424.9,198.7z" style="fill: rgb(253, 203, 156);"/>
				</g>
			</g>
			<g>
				<g>
					<path d="M 445 261 H 496.599998 V 265.9 H 445 V 261 Z" class="st3" style="fill: rgb(255, 255, 255);"/>
					<path d="M 443.100006 265.899994 H 498.500008 V 389.999992 H 443.100006 V 265.899994 Z" class="st4" style="fill: rgb(89, 98, 115);"/>
					<path d="M 443.100006 265.899994 H 498.500008 V 269.999994 H 443.100006 V 265.899994 Z" class="st5" style="fill: rgb(71, 79, 89);"/>
				</g>
				<path d="M 470.799988 261 H 496.599987 V 265.9 H 470.799988 V 261 Z" class="st6" style="fill: rgb(220, 228, 231);"/>
				<path d="M 470.799988 270 H 498.499989 V 390 H 470.799988 V 270 Z" class="st5" style="fill: rgb(71, 79, 89);"/>
				<path d="M 495.399994 274.700012 A 2.5 2.5 0 0 1 492.899994 277.200012 A 2.5 2.5 0 0 1 490.399994 274.700012 A 2.5 2.5 0 0 1 492.899994 272.200012 A 2.5 2.5 0 0 1 495.399994 274.700012 Z" class="st7" style="fill: rgb(246, 187, 66);"/>
			</g>
		</g>
		<g>
			<g>
				<g>
					<path class="st1" d="M325.8,89.5c0.7,2.2,1.2,4,1.5,4.7c1.2,3,5.4,21.2,5.8,22.5c0,0-2.4-10.2-3.2-14.2&#10;&#9;&#9;&#9;&#9;&#9;&#9;C329.4,99.7,327.3,93.8,325.8,89.5z" style="fill: rgb(254, 219, 180);"/>
					<path class="st1" d="M386.7,85.6c-3,1.2-5.7,9.9-6.8,12.8c-1.1,2.8-9.3,21.8-10.1,24.4c-0.8,2.6-3.6-1-3.4-2.1c0.2-1,2-13,2-13&#10;&#9;&#9;&#9;&#9;&#9;&#9;s0.3-3.1,0.8-7c-0.1,0-0.1,0-0.2,0c-1.3,8.7-2.7,18.5-2.8,19.1c-0.3,1-7.7,0.5-7.7,0.5s3-5.9,4.1-9.7c0.3-1.1,1-5.8,1.8-11.9&#10;&#9;&#9;&#9;&#9;&#9;&#9;c-1.1-0.1-2.2-0.3-3.2-0.6c-1.9-0.6-2.1-0.6-1.6-0.6c0.5,0.1,0.9,0.1,0.9,0.1c1.5,0.3,2.8,0.5,3.9,0.7&#10;&#9;&#9;&#9;&#9;&#9;&#9;c0.7-5.2,1.4-11.4,2.1-17.2c-1.4-0.2-3.3-0.5-3.6-0.6c-0.4-0.1,0.2-0.3,0.6-0.1c0.3,0.1,1.7,0.3,3,0.5&#10;&#9;&#9;&#9;&#9;&#9;&#9;c1.3-10.5,2.3-19.8,2.3-19.8c0.4-0.9,0.9-1.3,1.4-1.3c-1.6-0.7-3.6-0.7-4.9,0.2c-2.4,1.7-4.6,16.2-4.4,18.7&#10;&#9;&#9;&#9;&#9;&#9;&#9;c0.2,2.5-7.1,28.5-7.6,32.5c-0.5,4.1-2.1,2.7-2.1,2.7s-0.2-1.8-0.3-4.1c0.1,3.4,0.2,5.9,0.2,5.9l-8,0.8&#10;&#9;&#9;&#9;&#9;&#9;&#9;c2.7-1.8,2-13.2,1.3-22.9c-1.2,0.1-2.3,0.1-3.7,0.1c-1.8,0-1.8-0.5-1.5-0.4c0.3,0.1,1.9,0.3,4.6,0.1c0.2,0,0.4,0,0.5,0&#10;&#9;&#9;&#9;&#9;&#9;&#9;c-0.3-4.2-0.6-8.1-0.7-10.6c-0.1-2.6-0.1-6.8-0.2-11.3c-0.5,0.1-1,0.1-1.5,0.2c-1.3,0.2-1.9,0-2.3-0.1&#10;&#9;&#9;&#9;&#9;&#9;&#9;c-0.3-0.1,0.4-0.2,1.8-0.2c0.5,0,1.2,0,2-0.1c-0.1-9.7-0.2-20.8-0.2-20.8c0.9-0.3,1.7-0.2,2.3,0.1c-1.6-1.5-4.1-0.7-6.6,1.3&#10;&#9;&#9;&#9;&#9;&#9;&#9;c-3.1,2.5-2.8,12.5-2.8,12.5s-0.2,21.2-0.2,25c0,3.8,0.9,26.2,0.9,26.2l-4,1c0.4,1.2-7.5,3.6-7.5,3.6s0.4-5.7-2.6-20&#10;&#9;&#9;&#9;&#9;&#9;&#9;c-0.6,0.2-1.1,0.4-1.6,0.5c-1.3,0.4-2.2,0.6-2.9,0.8c-0.7,0.1-0.6-0.1-0.3-0.2c0.3-0.1,1.1-0.2,2.4-0.6&#10;&#9;&#9;&#9;&#9;&#9;&#9;c0.5-0.1,1.4-0.4,2.3-0.8c-0.5-2.3-1-4.7-1.7-7.4c-0.9-3.6-1.8-6.9-2.6-10c-1.2,0.4-1.8,0.6-2.8,0.8c-1,0.2-1.9,0.4-1.3,0.1&#10;&#9;&#9;&#9;&#9;&#9;&#9;c0.6-0.3,1.5-0.7,3.5-1.1c0.2,0,0.3-0.1,0.5-0.1c-3.6-13.3-6.5-21.4-6.5-21.4c-4.7,1.1-3.7,9.6-3.1,11.8&#10;&#9;&#9;&#9;&#9;&#9;&#9;c0.6,2.2,3.6,18,3.7,19.7c0.1,1.8,4.6,21.7,5.2,23.2c0.6,1.5,2.3,12.5,2.5,15.2c0.1,1.7-1.1,6.3-2.1,9.8c0,0,0,0,0,0&#10;&#9;&#9;&#9;&#9;&#9;&#9;c1.1-2.3,2.2-2.7,1.8-1.2c-0.4,1.4-0.7,3.6,0.5,2.7c1.2-0.8,2-1.9,2.8-3c0.8-1.1,1.8-1.5,1.8-1.5s-0.6,1.3-2,2.6&#10;&#9;&#9;&#9;&#9;&#9;&#9;c-1.4,1.4-3.7,3.6-3.9,4.2c0,0.1,0,0.1,0,0.2c2.1,0.3,11.6,1.9,21,8.7c10.6,7.8,16.8-6.1,18.9-10.3c2.1-4.2,4.2-13.1,5.2-14.1&#10;&#9;&#9;&#9;&#9;&#9;&#9;c0.9-1.1,0.7,0.3-0.7,4.8c-1.4,4.5-5,17.8-6.4,21.3c-1.5,3.5-7.1,14.7-8.5,19.8c0,0-1.2-8.8-7.6-16.4&#10;&#9;&#9;&#9;&#9;&#9;&#9;c-8.4-10.1-20.2-11.6-21.7-12.3c-0.6-0.3-1-0.5-1.1-0.6l-1.2,0.2c0,0,0-0.8,0.2-1.9c-0.2,0.6-0.3,1.1-0.4,1.2&#10;&#9;&#9;&#9;&#9;&#9;&#9;c-0.3,0.9-2.1,1-2.7-0.2c-0.6-1.1-7-12.4-11-19.7c-4-7.3-11.9-10.5-17.4-9.2c-5.5,1.3-4.4,5.5-3.3,6.6&#10;&#9;&#9;&#9;&#9;&#9;&#9;c1,1.1,8.6,10.3,11.7,16.5c-0.7-2.5-0.8-4.9-0.8-4.9c4.4,6.1,11.4,21.5,13.4,25.8c1.9,4.3,11.3,18.8,22.9,21.5&#10;&#9;&#9;&#9;&#9;&#9;&#9;c11.6,2.6,19.9,0.1,19.9,0.1c10.5,1.4,18.1-11.9,20.3-20.8c2.1-8.9,4.4-31.9,4.4-31.9l8.8-24.6c-0.5-0.2-0.9-0.3-1.3-0.5&#10;&#9;&#9;&#9;&#9;&#9;&#9;c-1.1-0.6-0.1-0.3,0.5-0.1c0.2,0.1,0.5,0.2,0.9,0.3l6.5-18.2C388.7,85.2,387.7,85.2,386.7,85.6z M305.2,131.3&#10;&#9;&#9;&#9;&#9;&#9;&#9;c-0.6-1.5-1.4-0.8-2.6,0.5c-1.2,1.3-3,2.7-4,2.9c-1,0.2-0.8,0,1.1-1.1c1.8-1.1,3.2-2.6,3.7-4.1c0.4-1.5-0.8-2.5-0.8-2.5&#10;&#9;&#9;&#9;&#9;&#9;&#9;s1.8,0.6,2.1,1.1c0.3,0.5,0.8,1.5,1.6,3.6C307,133.8,305.8,132.8,305.2,131.3z" style="fill: rgb(254, 219, 180);"/>
					<path class="st1" d="M301,158.8c-0.2-0.6-0.5-1.2-0.8-2c0.4,1.4,0.6,2.4,0.7,2.8c0.3,1.8,10.7,14.7,10.7,14.7l13,13.8l-0.5,12&#10;&#9;&#9;&#9;&#9;&#9;&#9;h22.3l0.5-8.8c0,0-19.9-1.1-22.8-4C321.1,184.5,303,163.4,301,158.8z" style="fill: rgb(254, 219, 180);"/>
					<path class="st1" d="M369.3,99c0.1-1,0.2-2.1,0.3-3.2c-0.1,1-0.3,2-0.4,3C369.2,98.9,369.3,99,369.3,99z" style="fill: rgb(254, 219, 180);"/>
					<path class="st1" d="M364.6,200.1l0-0.3C364.6,199.9,364.6,200,364.6,200.1L364.6,200.1z" style="fill: rgb(254, 219, 180);"/>
					<path class="st1" d="M371.8,74.7c0.6-5,1.2-10.1,1.1-11.8c-0.1-1.1-0.7-2-1.5-2.6c0.6,0.8,1.1,2.2,1,3.6&#10;&#9;&#9;&#9;&#9;&#9;&#9;C372.5,65.4,372.1,69.9,371.8,74.7z" style="fill: rgb(254, 219, 180);"/>
					<path class="st1" d="M375.4,165.1c0.3-1.2,0.6-2.1,0.7-2.8c0.1-0.6,0.2-1.3,0.3-2.3c0,0.3-0.1,0.6-0.1,0.9&#10;&#9;&#9;&#9;&#9;&#9;&#9;C376,162.3,375.7,163.7,375.4,165.1z" style="fill: rgb(254, 219, 180);"/>
					<path class="st1" d="M317.8,62.7c0.6,0.9,1.2,1.9,1.6,2.9C319,64.6,318.5,63.6,317.8,62.7z" style="fill: rgb(254, 219, 180);"/>
					<path class="st1" d="M379.7,133.3c-0.4,3.5-0.9,8.2-1.5,13C378.9,140.8,379.6,135.5,379.7,133.3z" style="fill: rgb(254, 219, 180);"/>
					<path class="st1" d="M380.1,130c0.4-1.8,1-4.4,1.7-7c-0.7,2.2-1.2,3.8-1.3,4.3C380.4,127.7,380.3,128.7,380.1,130z" style="fill: rgb(254, 219, 180);"/>
					<path class="st1" d="M392.3,87.7c0.1,1,0.1,2.2-0.1,3.5c0.2-0.5,0.3-0.9,0.3-1.1C392.7,89.2,392.6,88.4,392.3,87.7z" style="fill: rgb(254, 219, 180);"/>
				</g>
				<g>
					<path class="st2" d="M358.4,120.2c0,0,7.4,0.5,7.7-0.5c0.2-0.6,1.6-10.4,2.8-19.1c0.1,0,0.5-1.4,0.4-1.6c0-0.1-0.1-0.1-0.1-0.2&#10;&#9;&#9;&#9;&#9;&#9;&#9;c0.1-1,0.3-2,0.4-3c0.7-4.8,1.2-8.3,1.2-8.3s0.5-6.5,1-12.8c0.3-4.8,0.7-9.3,0.7-10.7c0-1.5-0.4-2.8-1-3.6&#10;&#9;&#9;&#9;&#9;&#9;&#9;c-0.3-0.4-0.8-0.7-1.2-0.7c-0.5,0-1,0.4-1.4,1.3c0,0-1.1,9.3-2.3,19.8c-1.4-0.2-2.8-0.4-3-0.5c-0.4-0.1-1,0-0.6,0.1&#10;&#9;&#9;&#9;&#9;&#9;&#9;c0.3,0.1,2.2,0.4,3.6,0.6c-0.7,5.8-1.5,12-2.1,17.2c-1.1-0.2-2.4-0.4-3.9-0.7c0,0-0.4-0.1-0.9-0.1c-0.5-0.1-0.3,0,1.6,0.6&#10;&#9;&#9;&#9;&#9;&#9;&#9;c0.9,0.3,2.1,0.5,3.2,0.6c-0.8,6.1-1.5,10.8-1.8,11.9C361.4,114.3,358.4,120.2,358.4,120.2z" style="fill: rgb(253, 203, 156);"/>
					<path class="st2" d="M392.3,87.7c-0.2-1.8-0.9-2.9-2.6-2.4l-0.1,0.2l-6.5,18.2c-0.4-0.1-0.7-0.2-0.9-0.3&#10;&#9;&#9;&#9;&#9;&#9;&#9;c-0.6-0.2-1.6-0.5-0.5,0.1c0.4,0.2,0.8,0.4,1.3,0.5l-8.8,24.6c0,0-2.3,23-4.4,31.9c-2.1,8.9-9.7,22.1-20.3,20.8&#10;&#9;&#9;&#9;&#9;&#9;&#9;c0,0-8.3,2.5-19.9-0.1c-11.6-2.6-20.9-17.2-22.9-21.5c-1.9-4.3-9-19.6-13.4-25.8c0,0,0.2,2.4,0.8,4.9c0.2,0.6,0.4,1.2,0.6,1.8&#10;&#9;&#9;&#9;&#9;&#9;&#9;c1,2.6,3.5,11,5.4,16.2c0.3,0.7,0.5,1.4,0.8,2c2,4.6,20.1,25.7,23,28.5c2.9,2.9,22.8,4,22.8,4l-0.5,8.8h18.3&#10;&#9;&#9;&#9;&#9;&#9;&#9;c0-0.1,0-0.2,0.1-0.3c0.8-4.6,1.8-10.7,2.1-11.7c0.5-1.5,6-12.1,8.6-23c0.3-1.4,0.6-2.8,0.8-4.2c0-0.3,0.1-0.6,0.1-0.9&#10;&#9;&#9;&#9;&#9;&#9;&#9;c0.6-4.1,1.3-9,1.8-13.6c0.6-4.8,1.1-9.5,1.5-13c0.2-1.3,0.3-2.4,0.4-3.4c0.2-1.3,0.3-2.3,0.4-2.7c0.1-0.6,0.6-2.2,1.3-4.3&#10;&#9;&#9;&#9;&#9;&#9;&#9;c2.2-7,6.5-19.8,7.8-22.5c0.9-1.7,2.1-5.8,2.5-9.3C392.3,89.9,392.4,88.7,392.3,87.7z" style="fill: rgb(253, 203, 156);"/>
					<path class="st2" d="M340.4,153.3c-9.3-6.9-18.9-8.4-21-8.7c0-0.1-0.1-0.1,0-0.2c0.2-0.5,2.5-2.8,3.9-4.2c1.4-1.4,2-2.6,2-2.6&#10;&#9;&#9;&#9;&#9;&#9;&#9;s-1,0.4-1.8,1.5c-0.8,1.1-1.6,2.1-2.8,3c-1.2,0.8-1-1.3-0.5-2.7c0.4-1.4-0.7-1.1-1.8,1.2c0,0,0,0,0,0c-0.5,1-0.8,2.1-0.9,3&#10;&#9;&#9;&#9;&#9;&#9;&#9;c-0.2,1.1-0.2,1.9-0.2,1.9l1.2-0.2c0.1,0.2,0.5,0.4,1.1,0.6c1.6,0.7,13.3,2.2,21.7,12.3c6.4,7.7,7.6,16.4,7.6,16.4&#10;&#9;&#9;&#9;&#9;&#9;&#9;c1.5-5.1,7.1-16.3,8.5-19.8c1.5-3.5,5-16.8,6.4-21.3c1.4-4.5,1.7-5.8,0.7-4.8c-0.9,1.1-3.1,10-5.2,14.1&#10;&#9;&#9;&#9;&#9;&#9;&#9;C357.2,147.2,351,161.1,340.4,153.3z" style="fill: rgb(253, 203, 156);"/>
					<path class="st2" d="M317.9,82.4c-2,0.4-2.9,0.8-3.5,1.1c-0.6,0.3,0.3,0.1,1.3-0.1c1-0.2,1.6-0.3,2.8-0.8&#10;&#9;&#9;&#9;&#9;&#9;&#9;c0.8,3.1,1.7,6.4,2.6,10c0.7,2.7,1.2,5.2,1.7,7.4c-0.9,0.3-1.8,0.6-2.3,0.8c-1.3,0.3-2.1,0.5-2.4,0.6c-0.3,0.1-0.4,0.4,0.3,0.2&#10;&#9;&#9;&#9;&#9;&#9;&#9;c0.7-0.1,1.6-0.3,2.9-0.8c0.5-0.1,1-0.3,1.6-0.5c3,14.2,2.6,20,2.6,20s7.9-2.3,7.5-3.6c-0.4-1.2-4.6-19.5-5.8-22.5&#10;&#9;&#9;&#9;&#9;&#9;&#9;c-0.3-0.8-0.8-2.5-1.5-4.7c-1.9-6.5-4.7-17.3-5.5-20.7c-0.2-1-0.5-2-0.9-3c-0.4-1.1-1-2.1-1.6-2.9c-1.5-2.1-3.6-3.2-5.8-1.8&#10;&#9;&#9;&#9;&#9;&#9;&#9;c0,0,2.9,8,6.5,21.4C318.3,82.3,318.1,82.4,317.9,82.4z" style="fill: rgb(253, 203, 156);"/>
					<path class="st2" d="M340.8,93.7c1.3,0,2.5,0,3.7-0.1c0.7,9.6,1.4,21.1-1.3,22.9l8-0.8c0,0-0.1-2.5-0.2-5.9&#10;&#9;&#9;&#9;&#9;&#9;&#9;c-0.3-7.3-0.7-18.9-0.7-19.6c-0.1-1-1.1-23-1.3-25.8c-0.2-2.4,0.5-12-3.2-13.7c-0.6-0.3-1.4-0.4-2.3-0.1c0,0,0.1,11.1,0.2,20.8&#10;&#9;&#9;&#9;&#9;&#9;&#9;c-0.8,0.1-1.5,0.1-2,0.1c-1.3,0-2.1,0-1.8,0.2c0.3,0.1,0.9,0.3,2.3,0.1c0.5-0.1,1-0.1,1.5-0.2c0,4.5,0.1,8.6,0.2,11.3&#10;&#9;&#9;&#9;&#9;&#9;&#9;c0.1,2.6,0.4,6.4,0.7,10.6c-0.2,0-0.4,0-0.5,0c-2.7,0.2-4.2-0.1-4.6-0.1C339,93.2,339.1,93.7,340.8,93.7z" style="fill: rgb(253, 203, 156);"/>
					<path class="st2" d="M298.6,134.7c1-0.2,2.8-1.6,4-2.9c1.2-1.3,2-2,2.6-0.5c0.6,1.5,1.8,2.5,1,0.4c-0.8-2.1-1.3-3.1-1.6-3.6&#10;&#9;&#9;&#9;&#9;&#9;&#9;c-0.3-0.5-2.1-1.1-2.1-1.1s1.2,0.9,0.8,2.5c-0.4,1.5-1.8,3-3.7,4.1C297.8,134.8,297.6,134.9,298.6,134.7z" style="fill: rgb(253, 203, 156);"/>
				</g>
			</g>
			<g>
				<g>
					<path d="M 318.700012 197 H 370.300011 V 201.9 H 318.700012 V 197 Z" class="st3" style="fill: rgb(255, 255, 255);"/>
					<path d="M 316.799988 201.899994 H 372.199989 V 390 H 316.799988 V 201.899994 Z" class="st8" style="fill: rgb(93, 156, 236);"/>
					<path d="M 316.799988 201.899994 H 372.199989 V 205.999994 H 316.799988 V 201.899994 Z" class="st9" style="fill: rgb(74, 137, 220);"/>
				</g>
				<path d="M 344.5 197 H 370.299999 V 201.9 H 344.5 V 197 Z" class="st6" style="fill: rgb(220, 228, 231);"/>
				<path d="M 344.5 206 H 372.200001 V 390 H 344.5 V 206 Z" class="st9" style="fill: rgb(74, 137, 220);"/>
				<path d="M 369 210.800003 A 2.5 2.5 0 0 1 366.5 213.300003 A 2.5 2.5 0 0 1 364 210.800003 A 2.5 2.5 0 0 1 366.5 208.300003 A 2.5 2.5 0 0 1 369 210.800003 Z" class="st7" style="fill: rgb(246, 187, 66);"/>
			</g>
		</g>
		<g>
			<g>
				<g>
					<path class="st1" d="M222.2,192.1c-0.7,2.2-1.2,4-1.5,4.7c-1.2,3-5.4,21.2-5.8,22.5c0,0,2.4-10.2,3.2-14.2&#10;&#9;&#9;&#9;&#9;&#9;&#9;C218.6,202.3,220.7,196.4,222.2,192.1z" style="fill: rgb(254, 219, 180);"/>
					<path class="st1" d="M158.4,188.1l6.5,18.2c0.4-0.1,0.7-0.2,0.9-0.3c0.6-0.2,1.6-0.5,0.5,0.1c-0.4,0.2-0.8,0.4-1.3,0.5&#10;&#9;&#9;&#9;&#9;&#9;&#9;l8.8,24.6c0,0,2.3,23,4.4,31.9c2.1,8.9,9.7,22.1,20.3,20.8c0,0,8.3,2.5,19.9-0.1c11.6-2.6,20.9-17.2,22.9-21.5&#10;&#9;&#9;&#9;&#9;&#9;&#9;c1.9-4.3,9-19.6,13.4-25.8c0,0-0.2,2.4-0.8,4.9c3-6.2,10.6-15.4,11.7-16.5c1.1-1.1,2.2-5.3-3.3-6.6c-5.5-1.3-13.4,1.9-17.4,9.2&#10;&#9;&#9;&#9;&#9;&#9;&#9;c-4,7.3-10.4,18.5-11,19.7c-0.6,1.1-2.4,1-2.7,0.2c0-0.1-0.2-0.6-0.4-1.2c0.2,1.1,0.2,1.9,0.2,1.9l-1.2-0.2&#10;&#9;&#9;&#9;&#9;&#9;&#9;c-0.1,0.2-0.5,0.4-1.1,0.6c-1.6,0.7-13.3,2.2-21.7,12.3c-6.4,7.7-7.6,16.4-7.6,16.4c-1.5-5.1-7.1-16.3-8.5-19.8&#10;&#9;&#9;&#9;&#9;&#9;&#9;c-1.5-3.5-5-16.8-6.4-21.3c-1.4-4.5-1.7-5.8-0.7-4.8c0.9,1.1,3.1,10,5.2,14.1c2.1,4.2,8.3,18,18.9,10.3&#10;&#9;&#9;&#9;&#9;&#9;&#9;c9.3-6.8,18.9-8.4,21-8.7c0-0.1,0.1-0.1,0-0.2c-0.2-0.5-2.5-2.8-3.9-4.2c-1.4-1.4-2-2.6-2-2.6s1,0.4,1.8,1.5&#10;&#9;&#9;&#9;&#9;&#9;&#9;c0.8,1.1,1.6,2.1,2.8,3c1.2,0.8,1-1.3,0.5-2.7c-0.4-1.4,0.7-1.1,1.8,1.2c0,0,0,0,0,0c-1-3.5-2.2-8.1-2.1-9.8&#10;&#9;&#9;&#9;&#9;&#9;&#9;c0.2-2.8,1.9-13.8,2.5-15.2c0.6-1.5,5.1-21.4,5.2-23.2c0.1-1.8,3.1-17.5,3.7-19.7c0.6-2.2,1.7-10.8-3.1-11.8&#10;&#9;&#9;&#9;&#9;&#9;&#9;c0,0-2.9,8-6.5,21.4c0.2,0,0.3,0.1,0.5,0.1c2,0.4,2.9,0.8,3.5,1.1c0.6,0.3-0.3,0.1-1.3-0.1c-1-0.2-1.6-0.3-2.8-0.8&#10;&#9;&#9;&#9;&#9;&#9;&#9;c-0.8,3.1-1.7,6.4-2.6,10c-0.7,2.7-1.2,5.2-1.7,7.4c0.9,0.3,1.8,0.6,2.3,0.8c1.3,0.3,2.1,0.5,2.4,0.6c0.3,0.1,0.4,0.4-0.3,0.2&#10;&#9;&#9;&#9;&#9;&#9;&#9;c-0.7-0.1-1.6-0.3-2.9-0.8c-0.5-0.1-1-0.3-1.6-0.5c-3,14.2-2.6,20-2.6,20s-7.9-2.3-7.5-3.6l-4-1c0,0,0.9-22.4,0.9-26.2&#10;&#9;&#9;&#9;&#9;&#9;&#9;c0-3.8-0.2-25-0.2-25s0.4-10.1-2.8-12.5c-2.6-2-5-2.8-6.6-1.3c0.6-0.3,1.4-0.4,2.3-0.1c0,0-0.1,11.1-0.2,20.8&#10;&#9;&#9;&#9;&#9;&#9;&#9;c0.8,0.1,1.5,0.1,2,0.1c1.3,0,2.1,0,1.8,0.2c-0.3,0.1-0.9,0.3-2.3,0.1c-0.5-0.1-1-0.1-1.5-0.2c0,4.5-0.1,8.6-0.2,11.3&#10;&#9;&#9;&#9;&#9;&#9;&#9;c-0.1,2.6-0.4,6.4-0.7,10.6c0.2,0,0.4,0,0.5,0c2.7,0.2,4.2-0.1,4.6-0.1c0.3-0.1,0.3,0.4-1.5,0.4c-1.3,0-2.5,0-3.7-0.1&#10;&#9;&#9;&#9;&#9;&#9;&#9;c-0.7,9.6-1.4,21.1,1.3,22.9l-8-0.8c0,0,0.1-2.5,0.2-5.9c-0.2,2.3-0.3,4.1-0.3,4.1s-1.6,1.4-2.1-2.7c-0.5-4.1-7.7-30-7.6-32.5&#10;&#9;&#9;&#9;&#9;&#9;&#9;c0.2-2.5-2-17-4.4-18.7c-1.3-0.9-3.3-0.9-4.9-0.2c0.5,0,1,0.4,1.4,1.3c0,0,1.1,9.3,2.3,19.8c1.4-0.2,2.8-0.4,3-0.5&#10;&#9;&#9;&#9;&#9;&#9;&#9;c0.4-0.1,1,0,0.6,0.1c-0.3,0.1-2.2,0.4-3.6,0.6c0.7,5.8,1.5,12,2.1,17.2c1.1-0.2,2.4-0.4,3.9-0.7c0,0,0.4-0.1,0.9-0.1&#10;&#9;&#9;&#9;&#9;&#9;&#9;c0.5-0.1,0.3,0-1.6,0.6c-0.9,0.3-2.1,0.5-3.2,0.6c0.8,6.1,1.5,10.8,1.8,11.9c1.1,3.8,4.1,9.7,4.1,9.7s-7.4,0.5-7.7-0.5&#10;&#9;&#9;&#9;&#9;&#9;&#9;c-0.2-0.6-1.6-10.4-2.8-19.1c-0.1,0-0.1,0-0.2,0c0.4,3.9,0.8,7,0.8,7s1.8,12,2,13c0.2,1-2.6,4.6-3.4,2.1&#10;&#9;&#9;&#9;&#9;&#9;&#9;c-0.9-2.6-9-21.5-10.1-24.4c-1.1-2.8-3.8-11.6-6.8-12.8C160.3,187.8,159.3,187.8,158.4,188.1z M241.8,234.3&#10;&#9;&#9;&#9;&#9;&#9;&#9;c0.8-2.1,1.3-3.1,1.6-3.6c0.3-0.5,2.1-1.1,2.1-1.1s-1.2,0.9-0.8,2.5c0.4,1.5,1.8,3,3.7,4.1c1.8,1.1,2.1,1.3,1.1,1.1&#10;&#9;&#9;&#9;&#9;&#9;&#9;c-1-0.2-2.8-1.6-4-2.9c-1.2-1.3-2-2-2.6-0.5C242.2,235.4,241,236.4,241.8,234.3z" style="fill: rgb(254, 219, 180);"/>
					<path class="st1" d="M247,261.4c0.2-0.6,0.5-1.2,0.8-2c-0.4,1.4-0.6,2.4-0.7,2.8c-0.3,1.8-10.7,14.7-10.7,14.7l-13,13.8l0.5,12&#10;&#9;&#9;&#9;&#9;&#9;&#9;h-22.3l-0.5-8.8c0,0,19.9-1.1,22.8-4C226.9,287.1,245,266,247,261.4z" style="fill: rgb(254, 219, 180);"/>
					<path class="st1" d="M178.7,201.6c-0.1-1-0.2-2.1-0.3-3.2c0.1,1,0.3,2,0.4,3C178.8,201.5,178.7,201.6,178.7,201.6z" style="fill: rgb(254, 219, 180);"/>
					<path class="st1" d="M183.4,302.7l0-0.3C183.4,302.5,183.4,302.6,183.4,302.7L183.4,302.7z" style="fill: rgb(254, 219, 180);"/>
					<path class="st1" d="M176.2,177.3c-0.6-5-1.2-10.1-1.1-11.8c0.1-1.1,0.7-2,1.5-2.6c-0.6,0.8-1.1,2.2-1,3.6&#10;&#9;&#9;&#9;&#9;&#9;&#9;C175.5,168,175.9,172.5,176.2,177.3z" style="fill: rgb(254, 219, 180);"/>
					<path class="st1" d="M172.6,267.7c-0.3-1.2-0.6-2.1-0.7-2.8c-0.1-0.6-0.2-1.3-0.3-2.3c0,0.3,0.1,0.6,0.1,0.9&#10;&#9;&#9;&#9;&#9;&#9;&#9;C172,264.9,172.3,266.3,172.6,267.7z" style="fill: rgb(254, 219, 180);"/>
					<path class="st1" d="M230.2,165.3c-0.6,0.9-1.2,1.9-1.6,2.9C229,167.2,229.5,166.2,230.2,165.3z" style="fill: rgb(254, 219, 180);"/>
					<path class="st1" d="M168.3,235.9c0.4,3.5,0.9,8.2,1.5,13C169.1,243.4,168.4,238.1,168.3,235.9z" style="fill: rgb(254, 219, 180);"/>
					<path class="st1" d="M167.9,232.6c-0.4-1.8-1-4.4-1.7-7c0.7,2.2,1.2,3.8,1.3,4.3C167.6,230.3,167.7,231.3,167.9,232.6z" style="fill: rgb(254, 219, 180);"/>
					<path class="st1" d="M155.7,190.3c-0.1,1-0.1,2.2,0.1,3.5c-0.2-0.5-0.3-0.9-0.3-1.1C155.3,191.8,155.4,191,155.7,190.3z" style="fill: rgb(254, 219, 180);"/>
				</g>
				<g>
					<path class="st2" d="M189.6,222.8c0,0-7.4,0.5-7.7-0.5c-0.2-0.6-1.6-10.4-2.8-19.1c-0.1,0-0.5-1.4-0.4-1.6&#10;&#9;&#9;&#9;&#9;&#9;&#9;c0-0.1,0.1-0.1,0.1-0.2c-0.1-1-0.3-2-0.4-3c-0.7-4.8-1.2-8.3-1.2-8.3s-0.5-6.5-1-12.8c-0.3-4.8-0.7-9.3-0.7-10.7&#10;&#9;&#9;&#9;&#9;&#9;&#9;c0-1.5,0.4-2.8,1-3.6c0.3-0.4,0.8-0.7,1.2-0.7c0.5,0,1,0.4,1.4,1.3c0,0,1.1,9.3,2.3,19.8c1.4-0.2,2.8-0.4,3-0.5&#10;&#9;&#9;&#9;&#9;&#9;&#9;c0.4-0.1,1,0,0.6,0.1c-0.3,0.1-2.2,0.4-3.6,0.6c0.7,5.8,1.5,12,2.1,17.2c1.1-0.2,2.4-0.4,3.9-0.7c0,0,0.4-0.1,0.9-0.1&#10;&#9;&#9;&#9;&#9;&#9;&#9;c0.5-0.1,0.3,0-1.6,0.6c-0.9,0.3-2.1,0.5-3.2,0.6c0.8,6.1,1.5,10.8,1.8,11.9C186.6,216.9,189.6,222.8,189.6,222.8z" style="fill: rgb(253, 203, 156);"/>
					<path class="st2" d="M155.7,190.3c0.2-1.8,0.9-2.9,2.6-2.4l0.1,0.2l6.5,18.2c0.4-0.1,0.7-0.2,0.9-0.3c0.6-0.2,1.6-0.5,0.5,0.1&#10;&#9;&#9;&#9;&#9;&#9;&#9;c-0.4,0.2-0.8,0.4-1.3,0.5l8.8,24.6c0,0,2.3,23,4.4,31.9c2.1,8.9,9.7,22.1,20.3,20.8c0,0,8.3,2.5,19.9-0.1&#10;&#9;&#9;&#9;&#9;&#9;&#9;c11.6-2.6,20.9-17.2,22.9-21.5c1.9-4.3,9-19.6,13.4-25.8c0,0-0.2,2.4-0.8,4.9c-0.2,0.6-0.4,1.2-0.6,1.8c-1,2.6-3.5,11-5.4,16.2&#10;&#9;&#9;&#9;&#9;&#9;&#9;c-0.3,0.7-0.5,1.4-0.8,2c-2,4.6-20.1,25.7-23,28.5c-2.9,2.9-22.8,4-22.8,4l0.5,8.8h-18.3c0-0.1,0-0.2-0.1-0.3&#10;&#9;&#9;&#9;&#9;&#9;&#9;c-0.8-4.6-1.8-10.7-2.1-11.7c-0.5-1.5-6-12.1-8.6-23c-0.3-1.4-0.6-2.8-0.8-4.2c0-0.3-0.1-0.6-0.1-0.9c-0.6-4.1-1.3-9-1.8-13.6&#10;&#9;&#9;&#9;&#9;&#9;&#9;c-0.6-4.8-1.1-9.5-1.5-13c-0.2-1.3-0.3-2.4-0.4-3.4c-0.2-1.3-0.3-2.3-0.4-2.7c-0.1-0.6-0.6-2.2-1.3-4.3&#10;&#9;&#9;&#9;&#9;&#9;&#9;c-2.2-7-6.5-19.8-7.8-22.5c-0.9-1.7-2.1-5.8-2.5-9.3C155.7,192.5,155.6,191.3,155.7,190.3z" style="fill: rgb(253, 203, 156);"/>
					<path class="st2" d="M207.6,255.9c9.3-6.8,18.9-8.4,21-8.7c0-0.1,0.1-0.1,0-0.2c-0.2-0.5-2.5-2.8-3.9-4.2c-1.4-1.4-2-2.6-2-2.6&#10;&#9;&#9;&#9;&#9;&#9;&#9;s1,0.4,1.8,1.5c0.8,1.1,1.6,2.1,2.8,3c1.2,0.8,1-1.3,0.5-2.7c-0.4-1.4,0.7-1.1,1.8,1.2c0,0,0,0,0,0c0.5,1,0.8,2.1,0.9,3&#10;&#9;&#9;&#9;&#9;&#9;&#9;c0.2,1.1,0.2,1.9,0.2,1.9l-1.2-0.2c-0.1,0.2-0.5,0.4-1.1,0.6c-1.6,0.7-13.3,2.2-21.7,12.3c-6.4,7.7-7.6,16.4-7.6,16.4&#10;&#9;&#9;&#9;&#9;&#9;&#9;c-1.5-5.1-7.1-16.3-8.5-19.8c-1.5-3.5-5-16.8-6.4-21.3c-1.4-4.5-1.7-5.8-0.7-4.8c0.9,1.1,3.1,10,5.2,14.1&#10;&#9;&#9;&#9;&#9;&#9;&#9;C190.8,249.8,197,263.7,207.6,255.9z" style="fill: rgb(253, 203, 156);"/>
					<path class="st2" d="M230.1,185c2,0.4,2.9,0.8,3.5,1.1c0.6,0.3-0.3,0.1-1.3-0.1c-1-0.2-1.6-0.3-2.8-0.8&#10;&#9;&#9;&#9;&#9;&#9;&#9;c-0.8,3.1-1.7,6.4-2.6,10c-0.7,2.7-1.2,5.2-1.7,7.4c0.9,0.3,1.8,0.6,2.3,0.8c1.3,0.3,2.1,0.5,2.4,0.6c0.3,0.1,0.4,0.4-0.3,0.2&#10;&#9;&#9;&#9;&#9;&#9;&#9;c-0.7-0.1-1.6-0.3-2.9-0.8c-0.5-0.1-1-0.3-1.6-0.5c-3,14.2-2.6,20-2.6,20s-7.9-2.3-7.5-3.6c0.4-1.2,4.6-19.5,5.8-22.5&#10;&#9;&#9;&#9;&#9;&#9;&#9;c0.3-0.8,0.8-2.5,1.5-4.7c1.9-6.5,4.7-17.3,5.5-20.7c0.2-1,0.5-2,0.9-3c0.4-1.1,1-2.1,1.6-2.9c1.5-2.1,3.6-3.2,5.8-1.8&#10;&#9;&#9;&#9;&#9;&#9;&#9;c0,0-2.9,8-6.5,21.4C229.7,184.9,229.9,185,230.1,185z" style="fill: rgb(253, 203, 156);"/>
					<path class="st2" d="M207.2,196.3c-1.3,0-2.5,0-3.7-0.1c-0.7,9.6-1.4,21.1,1.3,22.9l-8-0.8c0,0,0.1-2.5,0.2-5.9&#10;&#9;&#9;&#9;&#9;&#9;&#9;c0.3-7.3,0.7-18.9,0.7-19.6c0.1-1,1.1-23,1.3-25.8c0.2-2.4-0.5-12,3.2-13.7c0.6-0.3,1.4-0.4,2.3-0.1c0,0-0.1,11.1-0.2,20.8&#10;&#9;&#9;&#9;&#9;&#9;&#9;c0.8,0.1,1.5,0.1,2,0.1c1.3,0,2.1,0,1.8,0.2c-0.3,0.1-0.9,0.3-2.3,0.1c-0.5-0.1-1-0.1-1.5-0.2c0,4.5-0.1,8.6-0.2,11.3&#10;&#9;&#9;&#9;&#9;&#9;&#9;c-0.1,2.6-0.4,6.4-0.7,10.6c0.2,0,0.4,0,0.5,0c2.7,0.2,4.2-0.1,4.6-0.1C209,195.8,208.9,196.3,207.2,196.3z" style="fill: rgb(253, 203, 156);"/>
					<path class="st2" d="M249.4,237.3c-1-0.2-2.8-1.6-4-2.9c-1.2-1.3-2-2-2.6-0.5c-0.6,1.5-1.8,2.5-1,0.4c0.8-2.1,1.3-3.1,1.6-3.6&#10;&#9;&#9;&#9;&#9;&#9;&#9;c0.3-0.5,2.1-1.1,2.1-1.1s-1.2,0.9-0.8,2.5c0.4,1.5,1.8,3,3.7,4.1C250.2,237.4,250.4,237.5,249.4,237.3z" style="fill: rgb(253, 203, 156);"/>
				</g>
			</g>
			<g>
				<g>
					<path d="M 177.699997 299.600006 H 229.299995 V 304.500006 H 177.699997 V 299.600006 Z" class="st3" style="fill: rgb(255, 255, 255);"/>
					<path d="M 175.800003 304.5 H 231.200005 V 390 H 175.800003 V 304.5 Z" class="st10" style="fill: rgb(252, 110, 81);"/>
					<path d="M 175.800003 304.5 H 231.200005 V 308.6 H 175.800003 V 304.5 Z" class="st11" style="fill: rgb(233, 87, 63);"/>
				</g>
				<path d="M 177.699997 299.600006 H 203.399998 V 304.500006 H 177.699997 V 299.600006 Z" class="st6" style="fill: rgb(220, 228, 231);"/>
				<path d="M 175.800003 308.600006 H 203.500004 V 390.000008 H 175.800003 V 308.600006 Z" class="st11" style="fill: rgb(233, 87, 63);"/>
				<path d="M 184 313.399994 A 2.5 2.5 0 0 1 181.5 315.899994 A 2.5 2.5 0 0 1 179 313.399994 A 2.5 2.5 0 0 1 181.5 310.899994 A 2.5 2.5 0 0 1 184 313.399994 Z" class="st7" style="fill: rgb(246, 187, 66);"/>
			</g>
		</g>
		<g>
			<g>
				<g>
					<path class="st1" d="M95.9,107.5c-0.7,2.2-1.2,4-1.5,4.7c-1.2,3-5.4,21.2-5.8,22.5c0,0,2.4-10.2,3.2-14.2&#10;&#9;&#9;&#9;&#9;&#9;&#9;C92.3,117.7,94.3,111.8,95.9,107.5z" style="fill: rgb(254, 219, 180);"/>
					<path class="st1" d="M32,103.5l6.5,18.2c0.4-0.1,0.7-0.2,0.9-0.3c0.6-0.2,1.6-0.5,0.5,0.1c-0.4,0.2-0.8,0.4-1.3,0.5l8.8,24.6&#10;&#9;&#9;&#9;&#9;&#9;&#9;c0,0,2.3,23,4.4,31.9c2.1,8.9,9.7,22.1,20.3,20.8c0,0,8.3,2.5,19.9-0.1c11.6-2.6,20.9-17.2,22.9-21.5c1.9-4.3,9-19.6,13.4-25.8&#10;&#9;&#9;&#9;&#9;&#9;&#9;c0,0-0.2,2.4-0.8,4.9c3-6.2,10.6-15.4,11.7-16.5c1.1-1.1,2.2-5.3-3.3-6.6c-5.5-1.3-13.4,1.9-17.4,9.2c-4,7.3-10.4,18.5-11,19.7&#10;&#9;&#9;&#9;&#9;&#9;&#9;c-0.6,1.1-2.4,1-2.7,0.2c0-0.1-0.2-0.6-0.4-1.2c0.2,1.1,0.2,1.9,0.2,1.9l-1.2-0.2c-0.1,0.2-0.5,0.4-1.1,0.6&#10;&#9;&#9;&#9;&#9;&#9;&#9;c-1.6,0.7-13.3,2.2-21.7,12.3c-6.4,7.7-7.6,16.4-7.6,16.4c-1.5-5.1-7.1-16.3-8.5-19.8c-1.5-3.5-5-16.8-6.4-21.3&#10;&#9;&#9;&#9;&#9;&#9;&#9;c-1.4-4.5-1.7-5.8-0.7-4.8c0.9,1.1,3.1,10,5.2,14.1c2.1,4.2,8.3,18,18.9,10.3c9.3-6.9,18.9-8.4,21-8.7c0-0.1,0.1-0.1,0-0.2&#10;&#9;&#9;&#9;&#9;&#9;&#9;c-0.2-0.5-2.5-2.8-3.9-4.2c-1.4-1.4-2-2.6-2-2.6s1,0.4,1.8,1.5c0.8,1.1,1.6,2.1,2.8,3c1.2,0.8,1-1.3,0.5-2.7&#10;&#9;&#9;&#9;&#9;&#9;&#9;c-0.4-1.4,0.7-1.1,1.8,1.2c0,0,0,0,0,0c-1-3.5-2.2-8.1-2.1-9.8c0.2-2.8,1.9-13.8,2.5-15.2c0.6-1.5,5.1-21.4,5.2-23.2&#10;&#9;&#9;&#9;&#9;&#9;&#9;c0.1-1.8,3.1-17.5,3.7-19.7c0.6-2.2,1.7-10.8-3.1-11.8c0,0-2.9,8-6.5,21.4c0.2,0,0.3,0.1,0.5,0.1c2,0.4,2.9,0.8,3.5,1.1&#10;&#9;&#9;&#9;&#9;&#9;&#9;c0.6,0.3-0.3,0.1-1.3-0.1c-1-0.2-1.6-0.3-2.8-0.8c-0.8,3.1-1.7,6.4-2.6,10c-0.7,2.7-1.2,5.2-1.7,7.4c0.9,0.3,1.8,0.6,2.3,0.8&#10;&#9;&#9;&#9;&#9;&#9;&#9;c1.3,0.3,2.1,0.5,2.4,0.6c0.3,0.1,0.4,0.4-0.3,0.2c-0.7-0.1-1.6-0.3-2.9-0.8c-0.5-0.1-1-0.3-1.6-0.5c-3,14.2-2.6,20-2.6,20&#10;&#9;&#9;&#9;&#9;&#9;&#9;s-7.9-2.3-7.5-3.6l-4-1c0,0,0.9-22.4,0.9-26.2c0-3.8-0.2-25-0.2-25s0.4-10.1-2.8-12.5c-2.6-2-5-2.8-6.6-1.3&#10;&#9;&#9;&#9;&#9;&#9;&#9;c0.6-0.3,1.4-0.4,2.3-0.1c0,0-0.1,11.1-0.2,20.8c0.8,0.1,1.5,0.1,2,0.1c1.3,0,2.1,0,1.8,0.2c-0.3,0.1-0.9,0.3-2.3,0.1&#10;&#9;&#9;&#9;&#9;&#9;&#9;c-0.5-0.1-1-0.1-1.5-0.2c0,4.5-0.1,8.6-0.2,11.3c-0.1,2.5-0.4,6.4-0.7,10.6c0.2,0,0.4,0,0.5,0c2.7,0.2,4.2-0.1,4.6-0.1&#10;&#9;&#9;&#9;&#9;&#9;&#9;c0.3-0.1,0.3,0.4-1.5,0.4c-1.3,0-2.5,0-3.7-0.1c-0.7,9.6-1.4,21.1,1.3,22.9l-8-0.8c0,0,0.1-2.5,0.2-5.9&#10;&#9;&#9;&#9;&#9;&#9;&#9;c-0.2,2.3-0.3,4.1-0.3,4.1s-1.6,1.4-2.1-2.7c-0.5-4.1-7.7-30-7.6-32.5c0.2-2.5-2-17-4.4-18.7C55,77,53,77,51.4,77.7&#10;&#9;&#9;&#9;&#9;&#9;&#9;c0.5,0,1,0.4,1.4,1.3c0,0,1.1,9.3,2.3,19.8c1.4-0.2,2.8-0.4,3-0.5c0.4-0.1,1,0,0.6,0.1c-0.3,0.1-2.2,0.4-3.6,0.6&#10;&#9;&#9;&#9;&#9;&#9;&#9;c0.7,5.8,1.5,12,2.1,17.2c1.1-0.2,2.4-0.4,3.9-0.7c0,0,0.4-0.1,0.9-0.1c0.5-0.1,0.3,0-1.6,0.6c-0.9,0.3-2.1,0.5-3.2,0.6&#10;&#9;&#9;&#9;&#9;&#9;&#9;c0.8,6.1,1.5,10.8,1.8,11.9c1.1,3.8,4.1,9.7,4.1,9.7s-7.4,0.5-7.7-0.5c-0.2-0.6-1.6-10.4-2.8-19.1c-0.1,0-0.1,0-0.2,0&#10;&#9;&#9;&#9;&#9;&#9;&#9;c0.4,3.9,0.8,7,0.8,7s1.8,12,2,13c0.2,1-2.6,4.6-3.4,2.1c-0.9-2.6-9-21.5-10.1-24.4c-1.1-2.8-3.8-11.6-6.8-12.8&#10;&#9;&#9;&#9;&#9;&#9;&#9;C34,103.2,33,103.2,32,103.5z M115.4,149.7c0.8-2.1,1.3-3.1,1.6-3.6c0.3-0.5,2.1-1.1,2.1-1.1s-1.2,0.9-0.8,2.5&#10;&#9;&#9;&#9;&#9;&#9;&#9;c0.4,1.5,1.8,3,3.7,4.1c1.8,1.1,2.1,1.3,1.1,1.1c-1-0.2-2.8-1.6-4-2.9c-1.2-1.3-2-2-2.6-0.5&#10;&#9;&#9;&#9;&#9;&#9;&#9;C115.9,150.8,114.7,151.8,115.4,149.7z" style="fill: rgb(254, 219, 180);"/>
					<path class="st1" d="M120.7,176.8c0.2-0.6,0.5-1.2,0.8-2c-0.4,1.4-0.6,2.4-0.7,2.8c-0.3,1.8-10.7,14.7-10.7,14.7l-13,13.8&#10;&#9;&#9;&#9;&#9;&#9;&#9;l0.5,12H75.4l-0.5-8.8c0,0,19.9-1.1,22.8-4C100.6,202.5,118.7,181.4,120.7,176.8z" style="fill: rgb(254, 219, 180);"/>
					<path class="st1" d="M52.4,117c-0.1-1-0.2-2.1-0.3-3.2c0.1,1,0.3,2,0.4,3C52.4,116.9,52.4,117,52.4,117z" style="fill: rgb(254, 219, 180);"/>
					<path class="st1" d="M57.1,218.1l0-0.3C57,217.9,57.1,218,57.1,218.1L57.1,218.1z" style="fill: rgb(254, 219, 180);"/>
					<path class="st1" d="M49.9,92.7c-0.6-5-1.2-10.1-1.1-11.8c0.1-1.1,0.7-2,1.5-2.6c-0.6,0.8-1.1,2.2-1,3.6&#10;&#9;&#9;&#9;&#9;&#9;&#9;C49.2,83.4,49.5,87.9,49.9,92.7z" style="fill: rgb(254, 219, 180);"/>
					<path class="st1" d="M46.3,183.1c-0.3-1.2-0.6-2.1-0.7-2.8c-0.1-0.6-0.2-1.3-0.3-2.3c0,0.3,0.1,0.6,0.1,0.9&#10;&#9;&#9;&#9;&#9;&#9;&#9;C45.7,180.3,46,181.7,46.3,183.1z" style="fill: rgb(254, 219, 180);"/>
					<path class="st1" d="M103.9,80.7c-0.6,0.9-1.2,1.9-1.6,2.9C102.7,82.6,103.2,81.6,103.9,80.7z" style="fill: rgb(254, 219, 180);"/>
					<path class="st1" d="M42,151.3c0.4,3.5,0.9,8.2,1.5,13C42.8,158.8,42.1,153.5,42,151.3z" style="fill: rgb(254, 219, 180);"/>
					<path class="st1" d="M41.5,148c-0.4-1.8-1-4.4-1.7-7c0.7,2.2,1.2,3.8,1.3,4.3C41.2,145.7,41.4,146.7,41.5,148z" style="fill: rgb(254, 219, 180);"/>
					<path class="st1" d="M29.4,105.7c-0.1,1-0.1,2.2,0.1,3.5c-0.2-0.5-0.3-0.9-0.3-1.1C28.9,107.2,29,106.4,29.4,105.7z" style="fill: rgb(254, 219, 180);"/>
				</g>
				<g>
					<path class="st2" d="M63.3,138.2c0,0-7.4,0.5-7.7-0.5c-0.2-0.6-1.6-10.4-2.8-19.1c-0.1,0-0.5-1.4-0.4-1.6&#10;&#9;&#9;&#9;&#9;&#9;&#9;c0-0.1,0.1-0.1,0.1-0.2c-0.1-1-0.3-2-0.4-3c-0.7-4.8-1.2-8.3-1.2-8.3s-0.5-6.5-1-12.8c-0.3-4.8-0.7-9.3-0.7-10.7&#10;&#9;&#9;&#9;&#9;&#9;&#9;c0-1.5,0.4-2.8,1-3.6c0.3-0.4,0.8-0.7,1.2-0.7c0.5,0,1,0.4,1.4,1.3c0,0,1.1,9.3,2.3,19.8c1.4-0.2,2.8-0.4,3-0.5&#10;&#9;&#9;&#9;&#9;&#9;&#9;c0.4-0.1,1,0,0.6,0.1c-0.3,0.1-2.2,0.4-3.6,0.6c0.7,5.8,1.5,12,2.1,17.2c1.1-0.2,2.4-0.4,3.9-0.7c0,0,0.4-0.1,0.9-0.1&#10;&#9;&#9;&#9;&#9;&#9;&#9;c0.5-0.1,0.3,0-1.6,0.6c-0.9,0.3-2.1,0.5-3.2,0.6c0.8,6.1,1.5,10.8,1.8,11.9C60.3,132.3,63.3,138.2,63.3,138.2z" style="fill: rgb(253, 203, 156);"/>
					<path class="st2" d="M29.4,105.7c0.2-1.8,0.9-2.9,2.6-2.4l0.1,0.2l6.5,18.2c0.4-0.1,0.7-0.2,0.9-0.3c0.6-0.2,1.6-0.5,0.5,0.1&#10;&#9;&#9;&#9;&#9;&#9;&#9;c-0.4,0.2-0.8,0.4-1.3,0.5l8.8,24.6c0,0,2.3,23,4.4,31.9c2.1,8.9,9.7,22.1,20.3,20.8c0,0,8.3,2.5,19.9-0.1&#10;&#9;&#9;&#9;&#9;&#9;&#9;c11.6-2.6,20.9-17.2,22.9-21.5c1.9-4.3,9-19.6,13.4-25.8c0,0-0.2,2.4-0.8,4.9c-0.2,0.6-0.4,1.2-0.6,1.8c-1,2.6-3.5,11-5.4,16.2&#10;&#9;&#9;&#9;&#9;&#9;&#9;c-0.3,0.7-0.5,1.4-0.8,2c-2,4.6-20.1,25.7-23,28.5c-2.9,2.9-22.8,4-22.8,4l0.5,8.8H57.1c0-0.1,0-0.2-0.1-0.3&#10;&#9;&#9;&#9;&#9;&#9;&#9;c-0.8-4.6-1.8-10.7-2.1-11.7c-0.5-1.5-6-12.1-8.6-23c-0.3-1.4-0.6-2.8-0.8-4.2c0-0.3-0.1-0.6-0.1-0.9c-0.6-4.1-1.3-9-1.8-13.6&#10;&#9;&#9;&#9;&#9;&#9;&#9;c-0.6-4.8-1.1-9.5-1.5-13c-0.2-1.3-0.3-2.4-0.4-3.4c-0.2-1.3-0.3-2.3-0.4-2.7c-0.1-0.6-0.6-2.2-1.3-4.3&#10;&#9;&#9;&#9;&#9;&#9;&#9;c-2.2-7-6.5-19.8-7.8-22.5c-0.9-1.7-2.1-5.8-2.5-9.3C29.3,107.9,29.3,106.7,29.4,105.7z" style="fill: rgb(253, 203, 156);"/>
					<path class="st2" d="M81.3,171.3c9.3-6.9,18.9-8.4,21-8.7c0-0.1,0.1-0.1,0-0.2c-0.2-0.5-2.5-2.8-3.9-4.2c-1.4-1.4-2-2.6-2-2.6&#10;&#9;&#9;&#9;&#9;&#9;&#9;s1,0.4,1.8,1.5c0.8,1.1,1.6,2.1,2.8,3c1.2,0.8,1-1.3,0.5-2.7c-0.4-1.4,0.7-1.1,1.8,1.2c0,0,0,0,0,0c0.5,1,0.8,2.1,0.9,3&#10;&#9;&#9;&#9;&#9;&#9;&#9;c0.2,1.1,0.2,1.9,0.2,1.9l-1.2-0.2c-0.1,0.2-0.5,0.4-1.1,0.6c-1.6,0.7-13.3,2.2-21.7,12.3c-6.4,7.7-7.6,16.4-7.6,16.4&#10;&#9;&#9;&#9;&#9;&#9;&#9;c-1.5-5.1-7.1-16.3-8.5-19.8c-1.5-3.5-5-16.8-6.4-21.3c-1.4-4.5-1.7-5.8-0.7-4.8c0.9,1.1,3.1,10,5.2,14.1&#10;&#9;&#9;&#9;&#9;&#9;&#9;C64.5,165.2,70.7,179.1,81.3,171.3z" style="fill: rgb(253, 203, 156);"/>
					<path class="st2" d="M103.7,100.4c2,0.4,2.9,0.8,3.5,1.1c0.6,0.3-0.3,0.1-1.3-0.1c-1-0.2-1.6-0.3-2.8-0.8&#10;&#9;&#9;&#9;&#9;&#9;&#9;c-0.8,3.1-1.7,6.4-2.6,10c-0.7,2.7-1.2,5.2-1.7,7.4c0.9,0.3,1.8,0.6,2.3,0.8c1.3,0.3,2.1,0.5,2.4,0.6c0.3,0.1,0.4,0.4-0.3,0.2&#10;&#9;&#9;&#9;&#9;&#9;&#9;c-0.7-0.1-1.6-0.3-2.9-0.8c-0.5-0.1-1-0.3-1.6-0.5c-3,14.2-2.6,20-2.6,20s-7.9-2.3-7.5-3.6c0.4-1.2,4.6-19.5,5.8-22.5&#10;&#9;&#9;&#9;&#9;&#9;&#9;c0.3-0.8,0.8-2.5,1.5-4.7c1.9-6.5,4.7-17.3,5.5-20.7c0.2-1,0.5-2,0.9-3c0.4-1.1,1-2.1,1.6-2.9c1.5-2.1,3.6-3.2,5.8-1.8&#10;&#9;&#9;&#9;&#9;&#9;&#9;c0,0-2.9,8-6.5,21.4C103.4,100.3,103.6,100.4,103.7,100.4z" style="fill: rgb(253, 203, 156);"/>
					<path class="st2" d="M80.8,111.7c-1.3,0-2.5,0-3.7-0.1c-0.7,9.6-1.4,21.1,1.3,22.9l-8-0.8c0,0,0.1-2.5,0.2-5.9&#10;&#9;&#9;&#9;&#9;&#9;&#9;c0.3-7.3,0.7-18.9,0.7-19.6c0.1-1,1.1-23,1.3-25.8c0.2-2.4-0.5-12,3.2-13.7c0.6-0.3,1.4-0.4,2.3-0.1c0,0-0.1,11.1-0.2,20.8&#10;&#9;&#9;&#9;&#9;&#9;&#9;c0.8,0.1,1.5,0.1,2,0.1c1.3,0,2.1,0,1.8,0.2c-0.3,0.1-0.9,0.3-2.3,0.1c-0.5-0.1-1-0.1-1.5-0.2c0,4.5-0.1,8.6-0.2,11.3&#10;&#9;&#9;&#9;&#9;&#9;&#9;c-0.1,2.5-0.4,6.4-0.7,10.6c0.2,0,0.4,0,0.5,0c2.7,0.2,4.2-0.1,4.6-0.1C82.6,111.2,82.6,111.7,80.8,111.7z" style="fill: rgb(253, 203, 156);"/>
					<path class="st2" d="M123.1,152.7c-1-0.2-2.8-1.6-4-2.9c-1.2-1.3-2-2-2.6-0.5c-0.6,1.5-1.8,2.5-1,0.4c0.8-2.1,1.3-3.1,1.6-3.6&#10;&#9;&#9;&#9;&#9;&#9;&#9;c0.3-0.5,2.1-1.1,2.1-1.1s-1.2,0.9-0.8,2.5c0.4,1.5,1.8,3,3.7,4.1C123.8,152.8,124.1,152.9,123.1,152.7z" style="fill: rgb(253, 203, 156);"/>
				</g>
			</g>
			<g>
				<g>
					<path d="M 51.400002 215 H 103 V 219.9 H 51.400002 V 215 Z" class="st3" style="fill: rgb(255, 255, 255);"/>
					<path d="M 49.5 219.899994 H 104.900002 V 390 H 49.5 V 219.899994 Z" class="st12" style="fill: rgb(72, 207, 173);"/>
					<path d="M 49.5 219.899994 H 104.900002 V 223.999994 H 49.5 V 219.899994 Z" class="st13" style="fill: rgb(55, 188, 155);"/>
				</g>
				<path d="M 51.400002 215 H 77.100002 V 219.9 H 51.400002 V 215 Z" class="st6" style="fill: rgb(220, 228, 231);"/>
				<path d="M 49.5 224 H 77.200001 V 390 H 49.5 V 224 Z" class="st13" style="fill: rgb(55, 188, 155);"/>
				<path d="M 57.599998 228.800003 A 2.5 2.5 0 0 1 55.099998 231.300003 A 2.5 2.5 0 0 1 52.599998 228.800003 A 2.5 2.5 0 0 1 55.099998 226.300003 A 2.5 2.5 0 0 1 57.599998 228.800003 Z" class="st7" style="fill: rgb(246, 187, 66);"/>
			</g>
		</g>
	</g>
</svg>